<svg xmlns="http://www.w3.org/2000/svg" width="52" height="52" viewBox="0 0 52 52" role="img">
  <rect width="52" height="52" rx="10" fill="#ECE8DF"/>
  <rect width="52" height="52" rx="10" fill="none" stroke="rgba(20, 21, 46, 0.08)" stroke-width="1"/>
  <svg x="14" y="14" width="24" height="24" viewBox="0 0 32 32">
    <path fill="#262696" d="M 26.667969 5.332031 L 5.332031 5.332031 C 3.867188 5.332031 2.679688 6.535156 2.679688 8 L 2.667969 24 C 2.667969 25.464844 3.867188 26.667969 5.332031 26.667969 L 26.667969 26.667969 C 28.132812 26.667969 29.332031 25.464844 29.332031 24 L 29.332031 8 C 29.332031 6.535156 28.132812 5.332031 26.667969 5.332031 Z M 26.667969 10.667969 L 16 17.332031 L 5.332031 10.667969 L 5.332031 8 L 16 14.667969 L 26.667969 8 Z M 26.667969 10.667969 "/>
  </svg>
</svg>
