<svg xmlns="http://www.w3.org/2000/svg" width="52" height="52" viewBox="0 0 52 52" role="img"><rect width="52" height="52" rx="10" fill="#ECE8DF"/><rect width="52" height="52" rx="10" fill="none" stroke="rgba(20, 21, 46, 0.08)" stroke-width="1"/><svg x="14" y="14" width="24" height="24" viewBox="0 0 50 50"><path d="m30.842 34.612-8.105 10.387L5.452 31.37a3.862 3.862 0 0 1-.616-5.417l5.748-7.243 20.258 15.903Z" fill="#985184"/><path d="m22.623 44.909-10.455-8.335 8.128-10.242 10.547 8.28L22.738 45l-.115-.091Z" fill="#005E7A"/><path d="m22.593 44.886.144.114 22.447-28.767a3.862 3.862 0 0 0-.636-5.393L37.223 5 20.296 26.332l10.547 8.28-8.105 10.387-.144-.113Z" fill="#1AD3BB"/></svg></svg>
